# xmcd
#
# Track frame offsets: 
#        150
#        22797
#        44173
#        68931
#        91125
#        118376
#        143708
#        164193
#        186061
#        205376
#        225250
#
# Disc length: 3266 seconds
#
# Revision: 0
# Processed by: cddbd v1.5.2PL0 Copyright (c) Steve Scherf et al.
# Submitted via: ExactAudioCopy v1.2
#
DISCID=9b0cc00b
DTITLE=Cam Ly - Sau dau que ngoai
DYEAR=2012
DGENRE=Country
TTITLE0=Que huong toi
TTITLE1=Sau dau que ngoai
TTITLE2=Anh Bay nho me
TTITLE3=Chiec xuong
TTITLE4=Chieu nuoc lu
TTITLE5=Ve dau mai toc nguoi thuong
TTITLE6=LK Trang ngoc, Em so nguoi ta
TTITLE7=Chuyen do que huong
TTITLE8=Tet phat tai
TTITLE9=Khoai lang miet vuon
TTITLE10=Que huong toi
EXTD=
EXTT0=
EXTT1=
EXTT2=
EXTT3=
EXTT4=
EXTT5=
EXTT6=
EXTT7=
EXTT8=
EXTT9=
EXTT10=
PLAYORDER=
